<?xml version="1.0" standalone="no"?>
<!DOCTYPE svg PUBLIC "-//W3C//DTD SVG 20010904//EN"
 "http://www.w3.org/TR/2001/REC-SVG-20010904/DTD/svg10.dtd">
<svg version="1.0" xmlns="http://www.w3.org/2000/svg"
 width="256.000000pt" height="256.000000pt" viewBox="0 0 256.000000 256.000000"
 preserveAspectRatio="xMidYMid meet">
<metadata>
Created by potrace 1.11, written by Peter Selinger 2001-2013
</metadata>
<g transform="translate(0.000000,256.000000) scale(0.100000,-0.100000)"
fill="#000000" stroke="none">
<path d="M1747 2546 c-6 -15 -1 -155 7 -213 2 -17 -9 -82 -25 -145 -33 -130
-35 -169 -13 -229 23 -63 20 -266 -6 -395 -22 -112 -75 -171 -165 -184 -49 -7
-193 -4 -305 6 -129 11 -350 12 -450 1 -187 -20 -312 -103 -382 -252 -34 -73
-54 -177 -44 -229 9 -45 43 -70 84 -61 20 4 29 2 29 -7 0 -19 12 -109 18 -138
3 -14 8 -41 11 -60 2 -19 9 -55 14 -80 5 -25 14 -74 19 -110 6 -36 13 -76 16
-90 2 -13 7 -40 10 -60 5 -35 10 -59 20 -110 2 -14 7 -37 9 -53 9 -52 19 -72
49 -99 51 -47 117 -49 172 -7 43 35 54 74 61 235 3 82 8 176 9 209 2 33 3 71
4 85 l1 25 294 0 c162 0 297 -3 300 -5 3 -3 7 -113 9 -245 2 -132 9 -251 14
-265 17 -40 49 -62 95 -67 49 -4 83 10 109 47 11 15 44 141 82 313 l64 287 60
58 c68 65 101 112 138 195 28 64 61 178 70 242 4 22 8 51 11 65 7 42 15 224
18 445 3 184 5 214 22 245 25 46 26 218 1 300 -20 65 -22 89 -12 155 19 134
21 163 12 183 -8 17 -13 19 -31 10 -22 -9 -74 -80 -98 -132 -11 -26 -14 -27
-92 -24 l-80 3 -15 49 c-24 78 -98 144 -114 102z"/>
</g>
</svg>
