<svg version="1.0" xmlns="http://www.w3.org/2000/svg" width="341.333" height="341.333" viewBox="0 0 256 256"><path d="M174.7 1.4c-.6 1.5-.1 15.5.7 21.3.2 1.7-.9 8.2-2.5 14.5-3.3 13-3.5 16.9-1.3 22.9 2.3 6.3 2 26.6-.6 39.5-2.2 11.2-7.5 17.1-16.5 18.4-4.9.7-19.3.4-30.5-.6-12.9-1.1-35-1.2-45-.1-18.7 2-31.2 10.3-38.2 25.2-3.4 7.3-5.4 17.7-4.4 22.9.9 4.5 4.3 7 8.4 6.1 2-.4 2.9-.2 2.9.7 0 1.9 1.2 10.9 1.8 13.8.3 1.4.8 4.1 1.1 6 .2 1.9.9 5.5 1.4 8 .5 2.5 1.4 7.4 1.9 11 .6 3.6 1.3 7.6 1.6 9 .2 1.3.7 4 1 6 .5 3.5 1 5.9 2 11 .2 1.4.7 3.7.9 5.3.9 5.2 1.9 7.2 4.9 9.9 5.1 4.7 11.7 4.9 17.2.7 4.3-3.5 5.4-7.4 6.1-23.5.3-8.2.8-17.6.9-20.9.2-3.3.3-7.1.4-8.5l.1-2.5h29.4c16.2 0 29.7.3 30 .5.3.3.7 11.3.9 24.5.2 13.2.9 25.1 1.4 26.5 1.7 4 4.9 6.2 9.5 6.7 4.9.4 8.3-1 10.9-4.7 1.1-1.5 4.4-14.1 8.2-31.3l6.4-28.7 6-5.8c6.8-6.5 10.1-11.2 13.8-19.5 2.8-6.4 6.1-17.8 7-24.2.4-2.2.8-5.1 1.1-6.5.7-4.2 1.5-22.4 1.8-44.5.3-18.4.5-21.4 2.2-24.5 2.5-4.6 2.6-21.8.1-30-2-6.5-2.2-8.9-1.2-15.5 1.9-13.4 2.1-16.3 1.2-18.3-.8-1.7-1.3-1.9-3.1-1-2.2.9-7.4 8-9.8 13.2-1.1 2.6-1.4 2.7-9.2 2.4l-8-.3-1.5-4.9c-2.4-7.8-9.8-14.4-11.4-10.2z"/></svg>